<svg width="13" height="13" viewBox="0 0 13 13" fill="none" xmlns="http://www.w3.org/2000/svg">
    <g clip-path="url(#clip0_1309_8534)">
        <path d="M7.64017 8.5116C7.97135 8.5116 8.24014 8.79454 8.24014 9.14318C8.24014 9.49181 7.97135 9.77475 7.64017 9.77475H5.24074C4.90956 9.77475 4.64077 9.49181 4.64077 9.14318C4.64077 8.79454 4.90956 8.5116 5.24074 8.5116H7.64017Z" fill="#D0D5DD"/>
        <path fill-rule="evenodd" clip-rule="evenodd" d="M8.8406 1.5642C8.8406 1.21556 9.10891 0.932617 9.4401 0.932617C9.77129 0.932617 10.0401 1.21556 10.0401 1.5642V2.19578H10.6401C11.6346 2.19628 12.4405 3.04411 12.4405 4.09102V11.0384C12.4405 12.0848 11.6346 12.9331 10.6405 12.9331H2.24039C1.24635 12.9331 0.44046 12.0848 0.44046 11.0384V4.09102C0.44046 3.04411 1.24635 2.19628 2.24039 2.19628H2.84036V1.5647C2.84036 1.21607 3.10915 0.933122 3.44034 0.933122C3.77153 0.933122 4.03984 1.21607 4.03984 1.5647V2.19628H8.84012V1.5647L8.8406 1.5642ZM11.24 11.0379V6.61683H1.64089V11.0379C1.64089 11.3865 1.9092 11.6695 2.24039 11.6695H10.6405C10.9717 11.6695 11.24 11.3865 11.24 11.0379ZM11.24 5.35367H1.64089V4.09051C1.64089 3.74188 1.9092 3.45893 2.24039 3.45893H2.84036C2.84036 3.80756 3.10915 4.09051 3.44034 4.09051C3.77153 4.09051 4.03984 3.80756 4.03984 3.45893H8.84012C8.84012 3.80756 9.10843 4.09051 9.43962 4.09051C9.77081 4.09051 10.0396 3.80756 10.0396 3.45893H10.6396C10.9708 3.45893 11.2391 3.74188 11.2391 4.09051V5.35367H11.24Z" fill="#D0D5DD"/>
    </g>
    <defs>
        <clipPath id="clip0_1309_8534">
            <rect width="12" height="12" fill="white" transform="matrix(-1 0 0 1 12.4405 0.932617)"/>
        </clipPath>
    </defs>
</svg>
