<svg width="16" height="17" viewBox="0 0 16 17" fill="none" xmlns="http://www.w3.org/2000/svg">
    <g clip-path="url(#clip0_1280_15175)">
        <path fill-rule="evenodd" clip-rule="evenodd" d="M11.4582 1.10324H9.47316V0.570337C9.47316 0.272744 9.24904 0.0374383 8.98009 0.0374383C8.71114 0.0374383 8.48702 0.279665 8.48702 0.570337V1.10324H6.50194V0.570337C6.50194 0.272744 6.27782 0.0374383 6.00888 0.0374383C5.73993 0.0374383 5.51581 0.279665 5.51581 0.570337V1.10324H4.0302C3.63318 1.10324 3.25538 1.26933 2.98003 1.57385C2.69828 1.87144 2.54459 2.28669 2.54459 2.70885V12.8824H2.05153C1.23188 12.8824 0.565918 13.6021 0.565918 14.488C0.565918 15.3738 1.23188 16.0936 2.05153 16.0936H13.9428C14.3398 16.0936 14.7176 15.9275 14.993 15.623C15.2747 15.3254 15.4284 14.9102 15.4284 14.488V2.70885C15.4284 2.27977 15.2747 1.87144 14.993 1.57385C14.7176 1.26933 14.3334 1.10324 13.9428 1.10324H12.4572V0.570337C12.4508 0.272744 12.2331 0.0305176 11.9577 0.0305176C11.6824 0.0305176 11.4646 0.272744 11.4646 0.563416V1.09632L11.4582 1.10324ZM11.9577 13.9551H2.04512C1.76977 13.9551 1.55205 14.1973 1.55205 14.488C1.55205 14.7787 1.77618 15.0209 2.04512 15.0209H12.534C12.4764 14.8479 12.4508 14.6679 12.4508 14.488C12.4508 14.1904 12.2267 13.9551 11.9577 13.9551ZM14.4359 5.38719H3.53073V12.8824H11.9577C12.7774 12.8824 13.4433 13.6021 13.4433 14.488C13.4433 14.6333 13.4945 14.7648 13.5906 14.8686C13.6802 14.9724 13.8083 15.0278 13.9428 15.0278C14.0773 15.0278 14.1989 14.9724 14.295 14.8686C14.391 14.7717 14.4423 14.6333 14.4423 14.488V5.38719H14.4359ZM6.00888 9.67114C6.28423 9.67114 6.50194 9.91337 6.50194 10.204C6.50194 10.4947 6.27782 10.7369 6.00888 10.7369C5.73993 10.7369 5.51581 10.4947 5.51581 10.204C5.51581 9.91337 5.73993 9.67114 6.00888 9.67114ZM8.98009 9.67114C9.25544 9.67114 9.47316 9.91337 9.47316 10.204C9.47316 10.4947 9.24904 10.7369 8.98009 10.7369C8.71114 10.7369 8.48702 10.4947 8.48702 10.204C8.48702 9.91337 8.71114 9.67114 8.98009 9.67114ZM11.9513 9.67114C12.2267 9.67114 12.4444 9.91337 12.4444 10.204C12.4444 10.4947 12.2203 10.7369 11.9513 10.7369C11.6824 10.7369 11.4582 10.4947 11.4582 10.204C11.4582 9.91337 11.6824 9.67114 11.9513 9.67114ZM8.98009 7.5257C9.25544 7.5257 9.47316 7.76793 9.47316 8.0586C9.47316 8.34927 9.24904 8.5915 8.98009 8.5915C8.71114 8.5915 8.48702 8.34927 8.48702 8.0586C8.48702 7.76793 8.71114 7.5257 8.98009 7.5257ZM11.9513 7.5257C12.2267 7.5257 12.4444 7.76793 12.4444 8.0586C12.4444 8.34927 12.2203 8.5915 11.9513 8.5915C11.6824 8.5915 11.4582 8.34927 11.4582 8.0586C11.4582 7.76793 11.6824 7.5257 11.9513 7.5257ZM6.00247 7.5257C6.27782 7.5257 6.49554 7.76793 6.49554 8.0586C6.49554 8.34927 6.27142 8.5915 6.00247 8.5915C5.73353 8.5915 5.5094 8.34927 5.5094 8.0586C5.5094 7.76793 5.73353 7.5257 6.00247 7.5257ZM5.5094 2.16903H4.0238C3.88932 2.16903 3.76766 2.2244 3.67161 2.32821C3.57555 2.4251 3.52433 2.56352 3.52433 2.70885V4.31447H14.423V2.70885C14.423 2.56352 14.3718 2.43202 14.2758 2.32821C14.1861 2.2244 14.0581 2.16903 13.9236 2.16903H12.438V2.70193C12.438 2.99952 12.2138 3.23483 11.9449 3.23483C11.676 3.23483 11.4518 2.9926 11.4518 2.70193V2.16903H9.46675V2.70193C9.46675 2.99952 9.24263 3.23483 8.97369 3.23483C8.70474 3.23483 8.48062 2.9926 8.48062 2.70193V2.16903H6.49554V2.70193C6.49554 2.99952 6.27142 3.23483 6.00247 3.23483C5.73353 3.23483 5.5094 2.9926 5.5094 2.70193V2.16903Z" fill="#D0D5DD"/>
    </g>
    <defs>
        <clipPath id="clip0_1280_15175">
            <rect width="14.8689" height="16.07" fill="white" transform="translate(0.559448 0.0305176)"/>
        </clipPath>
    </defs>
</svg>
