<svg style="color:#D0D5DD" width="25" height="24" viewBox="0 0 25 24" fill="none" xmlns="http://www.w3.org/2000/svg">
    <path 
            d="M21.2783 10C21.2783 17 12.2783 23 12.2783 23C12.2783 23 3.27832 17 3.27832 10C3.27832 7.61305 4.22653 5.32387 5.91436 3.63604C7.60219 1.94821 9.89137 1 12.2783 1C14.6653 1 16.9545 1.94821 18.6423 3.63604C20.3301 5.32387 21.2783 7.61305 21.2783 10Z" stroke="currentColor" stroke-width="1.5" stroke-linecap="round" stroke-linejoin="round"/>
    <path d="M12.2783 13C13.9352 13 15.2783 11.6569 15.2783 10C15.2783 8.34315 13.9352 7 12.2783 7C10.6215 7 9.27832 8.34315 9.27832 10C9.27832 11.6569 10.6215 13 12.2783 13Z" stroke="currentColor" stroke-width="1.5" stroke-linecap="round" stroke-linejoin="round"/>
</svg>
